# xmcd CD database file
#
# Track frame offsets:
#	150
#	27477
#	49473
#	73951
#	89946
#	106005
#	123257
#	149740
#	169197
#	188488
#	212259
#	231306
#	258375
#	267022
#
# Disc length: 3772 seconds
#
# Revision: 0
# Processed by: cddbd v1.5.1PL2 Copyright (c) Steve Scherf et al.
# Submitted via: CDex 1.51
#
DISCID=d30eba0e
DTITLE=뉴에이지 태교음악 - CD2
DYEAR=1900
DGENRE=New Age
TTITLE0=Sky Walker - Isao Sasaki
TTITLE1=Wait There - YIRUMA
TTITLE2=My Son - Masatsugu Shinozaki
TTITLE3=Road to a dream - Yuichi Watanabe
TTITLE4=Sun and The Duck - Masaaki Mori
TTITLE5=Moon River - Isao Sasaki
TTITLE6=Mermaid In June - Masatsugu Shinozaki
TTITLE7=All Myself To You - YIRUMA
TTITLE8=Hodie Christus nauts est - Melanie Ross
TTITLE9=Citus Tea - Atsushi Tohno
TTITLE10=I... - YIRUMA
TTITLE11=Moon Swing - Isao Sasaki
TTITLE12=Little Girl - PRAHA
TTITLE13=Encounter - Yuichi Watanabe
EXTD=
EXTT0=
EXTT1=
EXTT2=
EXTT3=
EXTT4=
EXTT5=
EXTT6=
EXTT7=
EXTT8=
EXTT9=
EXTT10=
EXTT11=
EXTT12=
EXTT13=
PLAYORDER=
